/* XPM */
static char *bunecov2[] = {
/* columns rows colors chars-per-pixel */
"50 50 85 1 ",
"  c black",
". c #010100",
"X c #020201",
"o c #030301",
"O c #040401",
"+ c #040501",
"@ c #050601",
"# c #080802",
"$ c #080902",
"% c #090902",
"& c #0A0A02",
"* c #0B0B03",
"= c #0C0C03",
"- c #101104",
"; c #111104",
": c #111204",
"> c #121304",
", c #141505",
"< c #151505",
"1 c #191A06",
"2 c #1B1C06",
"3 c #1C1D07",
"4 c #1D1D07",
"5 c #1E1F07",
"6 c #1C1D08",
"7 c #1F2007",
"8 c #212208",
"9 c #222208",
"0 c #232408",
"q c #242508",
"w c #252609",
"e c #262709",
"r c #2E2F0B",
"t c #30320D",
"y c #36380D",
"u c #37390D",
"i c #38390D",
"p c #393A0D",
"a c #3B3D0E",
"s c #3C3D0E",
"d c #3C3E0E",
"f c #393A10",
"g c #3B3D10",
"h c #41430F",
"j c #40440F",
"k c #424310",
"l c #434410",
"z c #434510",
"x c #444510",
"c c #484A11",
"v c #494B11",
"b c #4D4F12",
"n c #4D4F15",
"m c #4E5012",
"M c #505313",
"N c #515313",
"B c #515316",
"V c #535514",
"C c #585A15",
"Z c #595C15",
"A c #5A5C15",
"S c #57591A",
"D c #5C5E19",
"F c #5E6414",
"G c #606317",
"H c #636915",
"J c #656C17",
"K c #686F16",
"L c #656718",
"P c #656818",
"I c #666918",
"U c #676A18",
"Y c #686B19",
"T c #696B19",
"R c #6C6F1A",
"E c #6D6F1A",
"W c #6F721A",
"Q c #70731A",
"! c #70731B",
"~ c #72751B",
"^ c #72751F",
"/ c #767920",
"( c #787B21",
") c #7F8124",
"_ c #7F8226",
/* pixels */
"~~~~~~~~~~~~~~~~~~~~~~~~~~~~~~~~~~~~~~~~~~~~~~~~~~",
"~~~~~~~~~~~~~~~~~~~~~~~~~~~~~~~~~~~~~~~~~~~~~~~~~~",
"~~~~~~~~~~~~~~~~~~~~(_~~~~~~~~~~~~~~~~~~~~~~~~~~~~",
"~~~~~~~~~~~~~~~~~~~~~__~~~~~~~~~~~~~~~~~~~~~~~~~~~",
"~~~~~~~~~~~~~~~~~~~~~(((~~~~~~~~~~~~~~~~~~~~~~~~~~",
"~~~~~~~~~~~~~~~~~~~~~J((J((__~~~~~~~~~~~~~~~~~~~~~",
"~~~~~~~~~~~~~~~~~~~~~~JJ(((~~~~~~~~~~~~~~~~~~~~~~~",
"~~~~~~~~~~~~~~~~~~~~~~~~((J~~~~~~~~~~~~~~~~~~~~~~~",
"((~~~~~~~~~~~~~~~~~~~~~~(J~~~~~~~~~~~~~~~~~~~~~~~~",
"(~~~~~~~~~~~~~~~~~~~Iu,@@,uI~~~~~~~~~~~~~~~~~~~~~~",
"(~~~~~~~~~~~~~~~~~~z@      @x~~~~~~~~~~~~~~~~~~~~~",
"J~~~~~~~~~~~~~~~~~y  rARRAr  y~~~~~~~~~~~~~~~~~~~~",
"~~~~~~~~~~~~~~~~~v $N~~~~~~N$ v~~~_~~~~~~~~~~~~~~~",
"~~~~~~~~~~~~~~~~R% m~~~~~~~~b %E~_~~~~~~~~~~~~~~~~",
"~~~~~~~~~~~~~~~~h 9~~ ~~~ ~~~8 k((~~~~~~~~~~~~~~~~",
"~~~~~~~~~~~~~~~~5 N~~   ~   ~M 7((J~~~~~~~~~~~~~~~",
"~~~~~~~~~~~~~~~~* T~~~~~~~~~~Y =JJ(_~~~~~~~~~~~~~~",
"~~~~~~~~~~~~~~~~X Q~~~~~~~~~~W o~~((~~~~~~~~~~~~~~",
"~~~~~~~~~~~~~~~~* T~~~~~~  ~~Y =~~JJ~~~~~~~~~~~~~~",
"~~~~~~~~~~~~~~~~5 N~~     ~~~M 7~~~~~~~~~~~~~~~~~~",
"~~~~~~~~~~~~~__~h 8~_~~~~~~~~8 k~~~~~~~~~~~~~~~~~~",
"~~~~~~~~~~~~~~_(^% S~~~~~~~~b %E~~~~~~~~~~~~~~~~~~",
"~~~~~~~~~~~(__J(Jn #N~~~~~~N$ v~~~~~~~~~~~~~~~~~~~",
"~~~~~~~~~~~~_((JJ(f  rZRRZr  y~~~~~~~~~~~~~~~~~~~~",
"~~~~~~~~~~~~J((~~(Jx@      @x~~~~~~!c;4~~~~~())~~~",
"~~~~~~~~~~~4;j/~~~~~Ii<  <iI~~~~~!c-  3~~~~~~)((~~",
"~~~~~~~~~~~3  -c!~~~~~~  ~~~~~~!c-  -c!~~~~~~K((~~",
"~~~~~~~~~~~!c-  -c!~~~~  ~~~~!c-  -c!~~~~~~~~~KK~~",
"~~~~~~~~~~~~~!c-  -c!~~  ~~!c-  -c!~~~~~~~~~~~~~~~",
"~~~~~~~~~~~~~~~!c-  -c!  !c-  -c!~~~~~~~~~~~~~~~~~",
"~~~~~~~~~~~~~~~~~!c-  -  -  -c!~~~~~~~~~~~~~~~~~~~",
"~~~~~~~~~~~~~~~~~~~!c-    -c!~~~~~~~~~~~~~~~~~~~~~",
"~~~~~~~~~~~~~~~~~~~~~!c  c!~~~~~~~~~~~~~~~~~~~~~~~",
"~~~~~~~~~~~~~~~~~~~~~~~  ~~~~~~~~~~~~~~~~~~~~~~~~~",
"~~~~~~~~~~~~~~~~~~~~~~~  ~~~~~~~~~~~~~~~~~~~~~~~~~",
"~~~~~~~~~~((~~~~~~~~~~~  ~~~~~~~~~~~~~~~~~~~~~~~~~",
"~~~~~~~~~~K))~~~~~~~~~~  ~~~~~~~~~~~~~~~~~~~~~~~~~",
"~~~~~~~~~~~)((~~~(~~~~~  ~~~~~~~~~~~~~~~~~~~~~~~~~",
"~~~~~~~~~~~K((~)(~~~~~~  ~~~~~~~~~~~~~~~~~~~~~~~~~",
"~~~~~~~~~~~K((())~~~~~~  ~~~~)~~~~~~~~~~~~~~~~~~~~",
"~~~~~~~~~~~~KK((K~~~~~~  ~~~((~~))(~~~~~~~~~~~~~~~",
"~~~~~~~~~~~~~~KK~~~~~~V  B~~(K~(()~~~~~~~~~~~~~~~~",
"~~~~~~~~~~~~~~~~~~~~Lw    6DK~~((K~~~~~~~~~~~~~~~~",
"~~~~~~~~~~~~~~~~~~Ws+ +ah&  0G((K()~~~~~~~~~~~~~~~",
"~~~~~~~~~~~~~~~~~V;  eP~~RpO .tF((K~~~~~~~~~~~~~~~",
"~~~~~~~~~~~~~~~Lw  ;V~~~~~~Ur. OgH~~~~~~~~~~~~~~~~",
"~~~~~~~~~~~~~Ws+ +dW~~~~~~~~~Gq  &lQ~~~~~~~~~~~~~~",
"~~~~~~~~~~~~~2  eP~~~))(~~~~~~~C1  3~~~~~~~~~~~~~~",
"~~~~~~~~~~~~~4>V~~~~~~)((~~~~~~~~b:4~~~~~~~~~~~~~~",
"~~~(~~~~~~~~~~~~~~~~~~K((~~~~~~~~~~~~~~~~~~~~))~~~"
};
