/* XPM */
static char *saidinha_da_prisaov2[] = {
/* columns rows colors chars-per-pixel */
"50 50 17 1 ",
"  c black",
". c #656C17",
"X c #686F16",
"o c #72751B",
"O c #73751B",
"+ c #787B21",
"@ c #804000",
"# c #814000",
"$ c #814100",
"% c #824100",
"& c #834100",
"* c #834200",
"= c #874400",
"- c #9F5000",
"; c #7F8124",
": c #7F8226",
"> c #FF8000",
/* pixels */
"oooooooooooooooooooooooooooooooooooooooooooooooooo",
"oooooooooooooooooooooooooooooooooooooooooooooooooo",
"oooooooooooooooooooo+:oooooooooooooooooooooooooooo",
"ooooooooooooooooooooo::ooooooooooooooooooooooooooo",
"ooooooooooooooooooooo+++oooooooooooooooooooooooooo",
"ooooooooooooooooooooo.++.++::ooooooooooooooooooooo",
"oooooooooooooooooooooo..+++ooooooooooooooooooooooo",
"oooooooooooooooooooo*=*==$===*oooooooooooooooooooo",
"++ooooooooooooooooo**>->>->>-**ooooooooooooooooooo",
"+ooooooooooooooooo**>>->>->>->**oooooooooooooooooo",
"+oooooooooooooooo**->>->>->>->>**ooooooooooooooooo",
".ooooooooooooooo**>->>->>->>->>-**oooooooooooooooo",
"ooooooooooooooo**>>->>->>->>->>->**Ooooooooooooooo",
"oooooooooooooo**->>->>->>->>->>->>**Oooooooooooooo",
"ooooooooooooo**>->>->>->>->>->>->>-**ooooooooooooo",
"ooooooooooooo@>>->>->>->>->>->>->>->$ooooooooooooo",
"ooooooooooooo@>>->>->>->>->>->>->>->$ooooooooooooo",
"ooooooooooooo@>>->>->>->>->>->>->>->$ooooooooooooo",
"ooooooooooooo@ >->>->>->>->>->>->>->$ooooooooooooo",
"ooooooooooooo@    >->>->>->>->>->>->$ooooooooooooo",
"ooooooooooooo@    >->>->>->>->>->>->$ooooooooooooo",
"ooooooooooooo@ >->>->>->>->>->>->>->$ooooooooooooo",
"ooooooooooo+:@>>->>->>->>->>->>->>->$ooooooooooooo",
"oooooooooooo:@>>->>->>->>->>->>->>->$ooooooooooooo",
"oooooooooooo.@>>->>->>->>->>->>->>->$ooooooo+;;ooo",
"ooooooooooooo@>>->>->>->>->>-     ->$oooooooo;++oo",
"ooooooooooooo@>>->>->>->>->>->> >>->$ooooooooX++oo",
"ooooooooooooo@>>->>->>->>->>->> >>->$oooooooooXXoo",
"ooooooooooooo@>>->>->>->>->>->   >->$ooooooooooooo",
"ooooooooooooo#>>->>->>->>->>- >-> ->$ooooooooooooo",
"ooooooooooooo$>>->>->>->>->>- >-> ->$ooooooooooooo",
"ooooooooooooo$>>->>->>->>->>->   >->$ooooooooooooo",
"ooooooooooooo$>>->>->>->>->>->>->>->$ooooooooooooo",
"ooooooooooooo$>>->>->>->>->>->>->>->$ooooooooooooo",
"ooooooooooooo$>>->>->>->>->>->>->>->$ooooooooooooo",
"oooooooooo++o%>>->>->>->>->>->>->>->$ooooooooooooo",
"ooooooooooX;;* >->>->>->>->>->>->>->$ooooooooooooo",
"ooooooooooo;+*    >->>->>->>->>->>->$ooooooooooooo",
"oooooooooooX+*    >->>->>->>->>->>->$ooooooooooooo",
"oooooooooooX+* >->>->>->>->>->>->>->$ooooooooooooo",
"ooooooooooooX*>>->>->>->>->>->>->>->$ooooooooooooo",
"ooooooooooooo*>>->>->>->>->>->>->>->$ooooooooooooo",
"ooooooooooooo*>>->>->>->>->>->>->>->$ooooooooooooo",
"ooooooooooooo@@@@@@@@@@@@@@@@@@@@@@@&ooooooooooooo",
"oooooooooooooooooooooooooooXoo+X++Xooooooooooooooo",
"ooooooooooooooooooooooooooooooXX+Xoooooooooooooooo",
"oooooooooooooooooooooooooooooooooooooooooooooooooo",
"ooooooooooooooooooooo;;+oooooooooooooooooooooooooo",
"oooooooooooooooooooooo;++ooooooooooooooooooooooooo",
"ooo+ooooooooooooooooooX++oooooooooooooooooooo;;ooo"
};
