/* XPM */
static char *buneco[] = {
/* columns rows colors chars-per-pixel */
"50 50 98 2 ",
"   c black",
".  c #020200",
"X  c #040401",
"o  c #040501",
"O  c #050501",
"+  c #050601",
"@  c #070702",
"#  c #080802",
"$  c #0B0B03",
"%  c #0C0C03",
"&  c #0D0E03",
"*  c #0E0E03",
"=  c #0F0F03",
"-  c #0F0F04",
";  c #101104",
":  c #111104",
">  c #121204",
",  c #151605",
"<  c #161705",
"1  c #191A06",
"2  c #1A1A06",
"3  c #1A1B06",
"4  c #1B1B07",
"5  c #1B1C06",
"6  c #1C1C07",
"7  c #1C1D07",
"8  c #1D1E07",
"9  c #1B1C08",
"0  c #1D1E08",
"q  c #1F2007",
"w  c #222308",
"e  c #262709",
"r  c #272809",
"t  c #282909",
"y  c #292A0B",
"u  c #2A2B0A",
"i  c #2A2C09",
"p  c #2A2C0A",
"a  c #2C2D0A",
"s  c #2E2E0A",
"d  c #2E2F0D",
"f  c #2F300B",
"g  c #32320B",
"h  c #32340C",
"j  c #33340C",
"k  c #33350C",
"l  c #34350C",
"z  c #35360C",
"x  c #393A0D",
"c  c #3B3D0E",
"v  c #3F410F",
"b  c #3F4113",
"n  c #424310",
"m  c #424410",
"M  c #434410",
"N  c #434510",
"B  c #444510",
"V  c #444610",
"C  c #454710",
"Z  c #474B10",
"A  c #464813",
"S  c #474813",
"D  c #4B4D12",
"F  c #4C4E12",
"G  c #4D4F12",
"H  c #4B4C15",
"J  c #4F5113",
"K  c #505213",
"L  c #535514",
"P  c #545614",
"I  c #555714",
"U  c #555814",
"Y  c #595B15",
"T  c #5C5E16",
"R  c #5C6315",
"E  c #5F6217",
"W  c #5F6614",
"Q  c #5E601A",
"!  c #616417",
"~  c #656C17",
"^  c #686F16",
"/  c #64671C",
"(  c #656818",
")  c #676A18",
"_  c #686A19",
"`  c #686B19",
"'  c #696B19",
"]  c #696C19",
"[  c #6A6D19",
"{  c #6B6E19",
"}  c #6E701A",
"|  c #71741B",
" . c #72751B",
".. c #6E7121",
"X. c #757621",
"o. c #787B21",
"O. c #7F8124",
"+. c #7F8226",
/* pixels */
" . . . . . . . . . . . . . . . .x         x  . . . . . .m         n  . . . . . . . . . . . . . . . .",
" . . . . . . . . . . . . . . . .x         x  . . . . . .v         t  . . . . . . . . . . . . . . . .",
" . . . . . . . . . . . . . . . .x         b  . . . . . .I         :  . . . . . . . . . . . . . . . .",
" . . . . . . . . . . . . . . . .x         b +.( F v v F E           {  . . . . . . . . . . . . . . .",
" . . . . . . . . . . . . . . . .x         y 4             X         U  . . . . . . . . . . . . . . .",
" . . . . . . . . . . . . . . . .x                                   v  . . . . . . . . . . . . . . .",
" . . . . . . . . . . . . . . . .V                                   m  . . . . . . . . . . . . . . .",
" . . . . . . . . . . . . . . . .{ *                               . !  . . . . . . . . . . . . . . .",
"o.o. . . . . . . . . . . . . . . .8           O 0 i f 6 O           q  . . . . . . . . . . . . . . .",
"o. . . . . . . . . . . . . . . .J           r )  . . . .) e           K  . . . . . . . . . . . . . .",
"o. . . . . . . . . . . . . . . .1         e  . . . . . . . .e         1  . . . . . . . . . . . . . .",
"~  . . . . . . . . . . . . . .(         O )  . . . . . . . .) O         (  . . . . . . . . . . . . .",
" . . . . . . . . . . . . . . .F         6  . . . . . . . . . .5         G  . . . . . . . . . . . . .",
" . . . . . . . . . . . . . . .v         f  . . . . . . . . . .f         v  . . . . . . . . . . . . .",
" . . . . . . . . . . . . . . .v         f  . . . . . . . . . .f         v  . . . . . . . . . . . . .",
" . . . . . . . . . . . . . . .F         6  . . . . . . . . . .5         G  . . . . . . . . . . . . .",
" . . . . . . . . . . . . . . .(         O )  . . . . . . . .) o         (  . . . . . . . . . . . . .",
" . . . . . . . . . . . . . . . .1         e  . . . . . . . .e         4  . . . . . . . . . . . . . .",
" . . . . . . . . . . . . . . . .J           e )  . . . .) e           Z  . . . . . . . . . . . . . .",
" . . . . . . . . . . . . . . . . .q           O 1 7 7 1 o           q  . . . . . . . . . . . . . . .",
" . . . . . . . . . . . . .+.+. . .` &                             * `  . . . . . . . . . . . . . . .",
" . . . . . . . . . . . . . .+.o.o. ./ -                         * E  . . . ._ V B {  . . . . . . . .",
" . . . . . . . . . . .o.+.+.~ o.~ o.o.R q                     q `  . . ._ k X     = [  . . . . . . .",
" . . . . . . . . .[ N B ..o.o.~ ~ o.o.~  .J 1             1 K  . . ._ k X           V  . . . . . . .",
" . . . . . . . .{ =       9 A ]  .o.~  . . . .h         h  . . ._ k X               B  .o.O.O. . . .",
" . . . . . . . .B             . w D }  . . . .x         x  ._ k X                 = {  . .O.o.o. . .",
" . . . . . . . .N                   + u L |  .x         l k X                 X k [  . . .^ o.o. . .",
" . . . . . . . .[ =                       $ j s         .                 X k _  . . . . . .^ ^  . .",
" . . . . . . . . .{ c >                                               X k _  . . . . . . . . . . . .",
" . . . . . . . . . . . .T j $                                     X k _  . . . . . . . . . . . . . .",
" . . . . . . . . . . . . . .| P p +                           X k _  . . . . . . . . . . . . . . . .",
" . . . . . . . . . . . . . . . . .} D w .                 X k _  . . . . . . . . . . . . . . . . . .",
" . . . . . . . . . . . . . . . . . . . .] N 3           2 _  . . . . . . . . . . . . . . . . . . . .",
" . . . . . . . . . . . . . . . . . . . . . . .g         x  . . . . . . . . . . . . . . . . . . . . .",
" . . . . . . . . . . . . . . . . . . . . . . .x         x  . . . . . . . . . . . . . . . . . . . . .",
" . . . . . . . . . .o.o. . . . . . . . . . . .x         x  . . . . . . . . . . . . . . . . . . . . .",
" . . . . . . . . . .^ O.O. . . . . . . . . . .x         x  . . . . . . . . . . . . . . . . . . . . .",
" . . . . . . . . . . .O.o.o. . . .o. . . . . .x         x  . . . . . . . . . . . . . . . . . . . . .",
" . . . . . . . . . . .^ o.o. .O.o. . . . . . .x         x  . . . . . . . . . . . . . . . . . . . . .",
" . . . . . . . . . . .^ o.o.o.O.O. . . . . . .z         z O. . . . . . . . . . . . . . . . . . . . .",
" . . . . . . . . . . . .^ ^ o.o.^  . . . .| M X         X S |  .O.O.o. . . . . . . . . . . . . . . .",
" . . . . . . . . . . . . . .^ ^  . . . .Y <                 < Q o.O. . . . . . . . . . . . . . . . .",
" . . . . . . . . . . . . . . . . . .' a                         d W  . . . . . . . . . . . . . . . .",
" . . . . . . . . . . . . . . . .| M @                             # H |  . . . . . . . . . . . . . .",
" . . . . . . . . . . . . . . .Y <                                     < Y  . . . . . . . . . . . . .",
" . . . . . . . . . . . . .] a                 , %     % ,                 a ]  . . . . . . . . . . .",
" . . . . . . . . . . . .{ ;               # B | { V V { | N #               ; {  . . . . . . . . . .",
" . . . . . . . . . . . .V               a X.O.o. . . . . . .' a               C  . . . . . . . . . .",
" . . . . . . . . . . . .C           < Y  . .O.o.o. . . . . . . .Y <           C  . . . . . . . . . .",
" . . .o. . . . . . . . .[ ;     # B |  . . .^ o.o. . . . . . . . .| N #     ; [  . . . . .O.O. . . ."
};
