/* XPM */
static char *muedinha[] = {
/* columns rows colors chars-per-pixel */
"50 50 40 1 ",
"  c #656C17",
". c #686F16",
"X c #72751B",
"o c #787A1A",
"O c #787B1A",
"+ c #787B21",
"@ c #7F8119",
"# c #7F8124",
"$ c #7F8226",
"% c #84871E",
"& c #8C9111",
"* c #959814",
"= c #969814",
"- c #9D9F13",
"; c #9A9C19",
": c #9EA013",
"> c #B2B60B",
", c #B1B30F",
"< c #B2B30F",
"1 c #B9BA0D",
"2 c #B9BB0D",
"3 c #BABB0D",
"4 c #BCBD10",
"5 c #858622",
"6 c #848623",
"7 c #858724",
"8 c #BFC012",
"9 c #BFC113",
"0 c #C0C309",
"q c #C5C70B",
"w c #C0C112",
"e c #DFE006",
"r c #E3E305",
"t c #E1E107",
"y c #E3E405",
"u c #F0F003",
"i c #F0F104",
"p c #F8F901",
"a c #F9F902",
"s c yellow",
/* pixels */
"XXXXXXXXXXXXXXXXXXXXXXXXXXXXXXXXXXXXXXXXXXXXXXXXXX",
"XXXXXXXXXXXXXXXXXXXXXXXXXXXXXXXXXXXXXXXXXXXXXXXXXX",
"XXXXXXXXXXXXXXXXXXXX+$XXXXXXXXXXXXXXXXXXXXXXXXXXXX",
"XXXXXXXXXXXXXXXXXXXXX$$XXXXXXXXXXXXXXXXXXXXXXXXXXX",
"XXXXXXXXXXXXXXXXXXXXX+++XXXXXXXXXXXXXXXXXXXXXXXXXX",
"XXXXXXXXXXXXXXXXXXXXX ++ ++$$XXXXXXXXXXXXXXXXXXXXX",
"XXXXXXXXXXXXXXXXXXXXXX  +++XXXXXXXXXXXXXXXXXXXXXXX",
"XXXXXXXXXXXXXXXXXXXXXXXX++ XXXXXXXXXXXXXXXXXXXXXXX",
"++XXXXXXXXXXXXXXXXXXXXXX+ XXXXXXXXXXXXXXXXXXXXXXXX",
"+XXXXXXXXXXXXXXXXXXXXXXXXXXXXXXXXXXXXXXXXXXXXXXXXX",
"+XXXXXXXXXXXXXXXXXXXXXXXXXXXXXXXXXXXXXXXXXXXXXXXXX",
" XXXXXXXXXXXXXXXo:<11111111111<:oXXXXXXXXXXXXXXXXX",
"XXXXXXXXXXXXXXO3psssssssssssssssp37XXXXXXXXXXXXXXX",
"XXXXXXXXXXXXX@ysssssssssssssssssssr@XXXXXXXXXXXXXX",
"XXXXXXXXXXXXOyssseq11111111111qesssrOXXXXXXXXXXXXX",
"XXXXXXXXXXXX3ssu*XXXXXXXXXXXXXXX;iss2XXXXXXXXXXXXX",
"XXXXXXXXXXXopss*XXXXXXXXXXXXXXXX &sspoXXXXXXXXXXXX",
"XXXXXXXXXXX:sseXXXXXXXXXXXXXXXXXXXtss-XXXXXXXXXXXX",
"XXXXXXXXXXX<ssqXXXXXXXXXXXXXXXXXXX0ss,XXXXXXXXXXXX",
"XXXXXXXXXXX1ss1XXXXXXXXXXXXXXXXXXX1ss1XXXXXXXXXXXX",
"XXXXXXXXXXX1ss9XXXXX$XXXXXXXXXXXXX1ss1XXXXXXXXXXXX",
"XXXXXXXXXXX1ss9++X+$XXXXXXXXXXXXXX1ss1XXXXXXXXXXXX",
"XXXXXXXXXXX4ss>+ ++ XXXXXXXXXXXXXX1ss1XXXXXXXXXXXX",
"XXXXXXXXXXX1ss4  ++ XXXXXXXXXXXXXX1ss1XXXXXXXXXXXX",
"XXXXXXXXXXX1ss4XX+ XXXXXXXXXXXXXXX1ss1XXXXXX+##XXX",
"XXXXXXXXXXX1ss4XXXXXXXXXXXXXXXXXXX1ss1XXXXXXX#++XX",
"XXXXXXXXXXX1ss1XXXXXXXXXXXXXXXXXXX1ss1XXXXXXX.++XX",
"XXXXXXXXXXX1ss1XXXXXXXXXXXXXXXXXXX1ss1XXXXXXXX..XX",
"XXXXXXXXXXX1ss1XXXXXXXXXXXXXXXXXXX1ss1XXXXXXXXXXXX",
"XXXXXXXXXXX1ss1XXXXXXXXXXXXXXXXXXX1ss1XXXXXXXXXXXX",
"XXXXXXXXXXX1ss1XXXXXXXXXXXXXXXXXXX1ss1XXXXXXXXXXXX",
"XXXXXXXXXXX1ss1XXXXXXXXXXXXXXXXXXX1ss1XXXXXXXXXXXX",
"XXXXXXXXXXX<ssqXXXXXXXXXXXXXXXXXXXqss,XXXXXXXXXXXX",
"XXXXXXXXXXX:sseXXXXXXXXXXXXXXXXXXXess-XXXXXXXXXXXX",
"XXXXXXXXXXXopss*XXXXXXXXXXXXXXXXX=sspoXXXXXXXXXXXX",
"XXXXXXXXXX++3ssu=XXXXXXXXXXXXXXX=uss2XXXXXXXXXXXXX",
"XXXXXXXXXX.#5rssseq11111111111qesssrOXXXXXXXXXXXXX",
"XXXXXXXXXXX#+%rsssssssssssssssssssr@XXXXXXXXXXXXXX",
"XXXXXXXXXXX.++Owasssssssssssssssp2OXXXXXXXXXXXXXXX",
"XXXXXXXXXXX.+++#6-,11111111118,-oXXXXXXXXXXXXXXXXX",
"XXXXXXXXXXXX..++.XXXXXXXXXXX++XX##+XXXXXXXXXXXXXXX",
"XXXXXXXXXXXXXX..XXXXXXXXX+XX+.X++#XXXXXXXXXXXXXXXX",
"XXXXXXXXXXXXXXXXXXXXXXXXXX#+.XX++.XXXXXXXXXXXXXXXX",
"XXXXXXXXXXXXXXXXXXXXXXXXXX++XX++.+#XXXXXXXXXXXXXXX",
"XXXXXXXXXXXXXXXXXXXXXXXXXXX.XX+.++.XXXXXXXXXXXXXXX",
"XXXXXXXXXXXXXXXXXXXXXXXXXXXXXX..+.XXXXXXXXXXXXXXXX",
"XXXXXXXXXXXXXXXXXXXXXXXXXXXXXXXXXXXXXXXXXXXXXXXXXX",
"XXXXXXXXXXXXXXXXXXXXX##+XXXXXXXXXXXXXXXXXXXXXXXXXX",
"XXXXXXXXXXXXXXXXXXXXXX#++XXXXXXXXXXXXXXXXXXXXXXXXX",
"XXX+XXXXXXXXXXXXXXXXXX.++XXXXXXXXXXXXXXXXXXXX##XXX"
};
