/* XPM */
static char *muedinhav2[] = {
/* columns rows colors chars-per-pixel */
"50 50 11 1 ",
"  c black",
". c #656C17",
"X c #686F16",
"o c #72751B",
"O c #73761B",
"+ c #787B21",
"@ c #7F8124",
"# c #7F8226",
"$ c #FF8000",
"% c #FCFC01",
"& c yellow",
/* pixels */
"oooooooooooooooooooooooooooooooooooooooooooooooooo",
"oooooooooooooooooooooooooooooooooooooooooooooooooo",
"oooooooooooooooooooo+#oooooooooooooooooooooooooooo",
"ooooooooooooooooooooo##ooooooooooooooooooooooooooo",
"ooooooooooooooooooooo+++oooooooooooooooooooooooooo",
"ooooooooooooooooooooo.++.++##ooooooooooooooooooooo",
"oooooooooooooooooooooo..+++ooooooooooooooooooooooo",
"oooooooooooooooooooooooo++.ooooooooooooooooooooooo",
"o+oooooooooooooooooooooo+.oooooooooooooooooooooooo",
"+ooooooooooooooooooooooooooooooooooooooooooooooooo",
"+ooooooooooooooooooooooooooooooooooooooooooooooooo",
".ooooooooooooooooooooooooooooooooooooooooooooooooo",
"oooooooooooooooooooooooo$ooooooooo#ooooooooooooooo",
"oooooooooooooooooooO$$$$%$$$$oooo#oooooooooooooooo",
"oooooooooooooooooo$$&&&&&&&&&$oo++oooooooooooooooo",
"ooooooooooooooooO$&&&&&&&&&&&&&$o+.ooooooooooooooo",
"oooooooooooooooO$&&&&&& & &&&&&&$o+#oooooooooooooo",
"ooooooooooooooo$&&&&&&& & &&&&&&&$o+oooooooooooooo",
"ooooooooooooooo&&&&&&&& & &&&&&&&&o.oooooooooooooo",
"oooooooooooooO$&&&&&&       &&&&&&$ooooooooooooooo",
"oooooooooooooo&&&&&&& & & &&&&&&&&&ooooooooooooooo",
"ooooooooooooo$&&&&&&& & & &&&&&&&&&$oooooooooooooo",
"ooooooooooo+o$&&&&&&& & & &&&&&&&&&$oooooooooooooo",
"ooooooooooooo$&&&&&&& & & &&&&&&&&&$oooooooooooooo",
"oooooooooooo$%&&&&&&&       &&&&&&&%$ooooooo+@@ooo",
"ooooooooooooo$&&&&&&&&& & & &&&&&&&$ooooooooo@++oo",
"ooooooooooooo$&&&&&&&&& & & &&&&&&&$oooooooooX++oo",
"ooooooooooooo$&&&&&&&&& & & &&&&&&&$ooooooooooXXoo",
"ooooooooooooo$&&&&&&&&& & & &&&&&&&$oooooooooooooo",
"oooooooooooooO$&&&&&&       &&&&&&$ooooooooooooooo",
"oooooooooooooo$&&&&&&&& & &&&&&&&&$ooooooooooooooo",
"ooooooooooooooo$&&&&&&& & &&&&&&&$oooooooooooooooo",
"oooooooooooooooO$&&&&&&&&&&&&&&&$ooooooooooooooooo",
"ooooooooooooooooO$&&&&&&&&&&&&&$oooooooooooooooooo",
"oooooooooooooooooo$$&&&&&&&&&$$ooooooooooooooooooo",
"oooooooooo++oooooooO$$$$%$$$$ooooooooooooooooooooo",
"ooooooooooX@@ooooooooooo$ooooooooooooooooooooooooo",
"ooooooooooo@++ooo+oooooooooooooooooooooooooooooooo",
"oooooooooooX++o@+ooooooooooooooooooooooooooooooooo",
"oooooooooooX+++@@oooooooooooo@oooooooooooooooooooo",
"ooooooooooooXX++Xooooooooooo++oo@@+ooooooooooooooo",
"ooooooooooooooXXooooooooo+oo+Xo++@oooooooooooooooo",
"oooooooooooooooooooooooooo@+Xoo++Xoooooooooooooooo",
"oooooooooooooooooooooooooo++oo++X+@ooooooooooooooo",
"oooooooooooooooooooooooooooXoo+X++Xooooooooooooooo",
"ooooooooooooooooooooooooooooooXX+Xoooooooooooooooo",
"oooooooooooooooooooooooooooooooooooooooooooooooooo",
"ooooooooooooooooooooo@@+oooooooooooooooooooooooooo",
"oooooooooooooooooooooo@++ooooooooooooooooooooooooo",
"ooo+ooooooooooooooooooX++oooooooooooooooooooo@@ooo"
};
