/* XPM */
static char *parede[] = {
/* columns rows colors chars-per-pixel */
"32 46 56 1 ",
"  c #4C2713",
". c #4F2913",
"X c #512A13",
"o c #562F18",
"O c #553017",
"+ c #563118",
"@ c #5B341B",
"# c #5E391F",
"$ c #5E3C23",
"% c #623D23",
"& c #5F4227",
"* c #644126",
"= c #63442A",
"- c #68472C",
"; c #66492D",
": c #694A2E",
"> c #664630",
", c #674931",
"< c #6A4E31",
"1 c #674F3A",
"2 c #6C5132",
"3 c #6F5538",
"4 c #715536",
"5 c #725837",
"6 c #725738",
"7 c #755A3A",
"8 c #795D3D",
"9 c #7C613F",
"0 c #6D5A46",
"q c #7B5F40",
"w c #715E49",
"e c #7D6343",
"r c #72604B",
"t c #766551",
"y c #796955",
"u c #7A6A58",
"i c #816645",
"p c #836846",
"a c #846748",
"s c #856B4A",
"d c #886D4C",
"f c #8A714E",
"g c #8D7451",
"h c #8F7855",
"j c #917752",
"k c #927A56",
"l c #947E5A",
"z c #96815D",
"x c #98835F",
"c c #9A8561",
"v c #9D8862",
"b c #93836D",
"n c #958570",
"m c #968874",
"M c #9E8F7B",
"N c #9A8F80",
/* pixels */
"@@$@$$$$%%%%--***%**%%*%%$$@@@$$",
"@Mnn$sdpadddsadassssdaspssa=bbm$",
"@M>,dgghjjkjkklkkkllkkjjhhgg>=M$",
"#,ep++@+@2447788q87644<@++o+ee<@",
"#lii@qeei@@@@@@@@@o@o@@9e86@aih$",
"%lss+dee9i#9999iiiii9%aiied@aih#",
"%lsd@@dsiad%aaiaiaii-ddadd@@sph$",
"%lsd@2$@jaad%%8988--dfak#@8#spj$",
"%zss%499@ldddd-9i-dffdk@788%ddk%",
"*ldf%7999@lddjj%%dfffk@q88q%fdk%",
"&zff*iaddd@ljfjjg<dgl%ssada%ffl%",
"%zff%ipdddd#lljdfg<l@ddasad%fgz*",
"*zff*9pddddd#@ljggg@dddsdaa-hfl*",
"*lfj%edpadd-dj@vlggd2dddaad*ggz*",
"*kff%4888--dddx@@vdds--iqq8%ggc%",
"%zjj#488-djddv@ii@vddsd-qq8$ggv%",
"%ljf@47-ddffx#9iii@lddai-88@ggl%",
"#kjj@%#dddcl#9iiiqq#jfiii%%@ggl%",
"#lfj@8paaj#@papaaaaa#@j9qqi@fgc$",
"#ljf@8ppd@89aaapaaaa88@f9i8ogfl@",
"#-gg@@@#####%%*%%%%%%###@@@@gg>o",
"@m>-dddgjjjjjjjjjjjjjjjdddaa>>mX",
"@NNN*llcxxccxvvvvvvvvvlvzlk>NNNX",
"otttX9999iiiiiiiaappiiaaiaiXyuuX",
"owwX88eiieipeiipppppeppeii9iXrrX",
"X1X888ieeeiepeiipepepppeiiie9O3X",
"X.q8XXXXXoOoOOO++OOO+@OOXXXX9e..",
"X888X4<22eX==2<<222;;X9<:::X99eX",
".888XX4234e.>2<<224;.925:<X.887 ",
".888X:X.366qXX<323XX9422XX;.899 ",
".888X2<-.767eaX23Xqe252X=<<.997 ",
".777X2<:,.6777s..p6244X;=2< 557.",
".777.22,;;..777es&&3..;;;<< 545.",
".577.23;;;;<.7785ys.;<;;;<2.345.",
".775.22;;<  e$&7757e..<;><2.532.",
".555.<<;;.ee733..575ee ;;2<.254.",
".355 ;<=.82337.22 5555r.=<<.335.",
".555.;<.7343..<<<<..5559 <<.422.",
".<55...3223.=,<<<;<&X522e...252.",
".2<2.35<<<.&=<;,;<<&&.52<re.222.",
".222.222<.&;&<;,;2;&&& 2;<2.222.",
"  22.. .........OO ..  O... 22..",
".t 27999eeeeyepe9ee999eeeeee2.y.",
".0y <2;<2<<<2<22225;22222222.y0.",
".00t.<<<<<<:<<<<22222222222 y00.",
"...........X..XX   .   ........."
};
