/* XPM */
static char *saidinha_da_prisao[] = {
/* columns rows colors chars-per-pixel */
"50 50 63 1 ",
"  c black",
". c #070100",
"X c #070300",
"o c #080400",
"O c #110400",
"+ c #110500",
"@ c #110800",
"# c #110900",
"$ c #7A1E00",
"% c #7B1F00",
"& c #482400",
"* c #7A3D00",
"= c #7B3D00",
"- c #7B3E00",
"; c #72560B",
": c #74570B",
"> c #795A0D",
", c #7C5D10",
"< c #656C17",
"1 c #686F16",
"2 c #7F6012",
"3 c #7F6113",
"4 c #756814",
"5 c #72751B",
"6 c #787B21",
"7 c #800000",
"8 c #800200",
"9 c #800400",
"0 c #800600",
"q c #800900",
"w c #800B00",
"e c #800D00",
"r c #800F00",
"t c #801100",
"y c #801300",
"u c #801500",
"i c #801700",
"p c #801A00",
"a c #801C00",
"s c #801E00",
"d c #802000",
"f c #802200",
"g c #802600",
"h c #802900",
"j c #802B00",
"k c #802D00",
"l c #802F00",
"z c #803000",
"x c #803100",
"c c #803300",
"v c #803500",
"b c #803700",
"n c #803A00",
"m c #803C00",
"M c #803E00",
"N c #804000",
"B c #7F8124",
"V c #7F8226",
"C c #BF8F00",
"Z c #BF9F00",
"A c #C09000",
"S c #C0A000",
"D c yellow",
/* pixels */
"55555555555555555555555555555555555555555555555555",
"55555555555555555555555555555555555555555555555555",
"555555555555555555556V5555555555555555555555555555",
"555555555555555555555VV5NNNN5555555555555555555555",
"55555555555555555555NNNNNNNNNNNN555555555555555555",
"55555555555555555NNNNNNNNNNNNNNNNN5555555555555555",
"5555555555555555NNNNNNNNNNNNNNNNNNNN55555555555555",
"555555555555555NNNNNNNNNNNN NNNNNNNNN5555555555555",
"66555555555555NNN     N  N  NN NN NNNN 55555555555",
"65555555555555NNN NNNNNN   NNN NN      55555555555",
"6555555555554NNNN NNNNNNN NNNN NNNN NNNN5555555555",
"<55555555555>NNNN   NNNN   NNN NNNN NNNN5555555555",
"555555555555>NNNd NsfNNN d NNN NNNN NNN>5555555555",
"555555555555>NNNd     dN d  Nd dNNd NNN>5555555555",
"555555555555>NNNdNNpgNdNNdNNNdNdNNd NNN>5555555555",
"555555555555>NNNdNNihNdNNdNNNdNdNNdNNNN>5555555555",
"555555555555>NNNdNNujNdNNdNNNdNdNNdNNNN>5555555555",
"555555555555>NNNdNNykNdNNdNNNdNdNNdNNNN>5555555555",
"555555555555>NNNdNNtlNdNNdNNNdNdNNdNNNN>5555555555",
"555555555555>NNNdNNrxNdNNdNNNdNdNNdNNNN>5555555555",
"555555555555>NNNdNNecNdNNdNNNdNdNNdNNNN>5555555555",
"555555555555>NNNdNNwvNdNNdNNNdNdNNdNNNN>5555555555",
"5555555555563NNNdNNqbNdNNdNNNdNdNN$&*NN>5555555555",
"5555555555553NNNdNN0nNdNNdNNNdNdN*OX#=N>5555555555",
"555555555555;NNNdNN9mNdNNdNNNdNdN&. o&N>55556BB555",
"555555555555>NNNdNN8MNdNNdNNNdNdN*+o@-N>55555B6655",
"555555555555>NNNdNN7NNdNNdNNNdNdNN%&-NN>5555516655",
"555555555555>NNNdNN8NNdNNdNNNdNdNNdNNNN>5555551155",
"555555555555>NNNdNN9NNdNNdNNNdNdNNCZZNN>5555555555",
"555555555555>NNNdNN0NNdNNdNNNdNdNZDDDSN>5555555555",
"555555555555>NNNdNNqNNdNNdNNNdNdNZDDDSN>5555555555",
"555555555555>NNNdNNwNNdNNdNNNdNdNZDDDSN>5555555555",
"555555555555>NNNdNNeNNdNNdNNNdNdNNASSNN>5555555555",
"555555555555>NNNdNNrNNdNNdNNNdNdNNdNNNN>5555555555",
"555555555555>NNNdNNtNNdNNdNNNdNdNNdNNNN>5555555555",
"555555555566>NNNdNNyNNdNNdNNNdNdNNdNNNN>5555555555",
"55555555551B2NNNdNNuNNdNNdNNNdNdNNdNNNN>5555555555",
"55555555555B,NNNdNNiNNdNNdNNNdNdNNdNNNN>5555555555",
"555555555551,NNNdNNpNNdNNdNNNdNdNNdNNNN>5555555555",
"555555555551,NNNdNNaNNdNNdNNNdNdNNdNNNN>5555555555",
"555555555555:NNNdNNsNNdNNdNNNdNdNNdNNNN>5555555555",
"555555555555>NNNdNNdNNzNNdNNNdNdNNzNNNN>5555555555",
"555555555555>NNNzNNxNNNNNzNNNzNzNNNNNNN>5555555555",
"555555555555>NNNNNNNNNNNNNNNNNNNNNNNNNN>5555555555",
"5555555555554>>>>>>>>>>>>>>:>>,:,,:>>>>45555555555",
"55555555555555555555555555555511615555555555555555",
"55555555555555555555555555555555555555555555555555",
"555555555555555555555BB655555555555555555555555555",
"5555555555555555555555B665555555555555555555555555",
"555655555555555555555516655555555555555555555BB555"
};
